<?xml version="1.0" encoding="utf-8"?>
<!-- Generator: Adobe Illustrator 16.0.0, SVG Export Plug-In . SVG Version: 6.00 Build 0)  -->
<!DOCTYPE svg PUBLIC "-//W3C//DTD SVG 1.1//EN" "http://www.w3.org/Graphics/SVG/1.1/DTD/svg11.dtd">
<svg version="1.1" id="Layer_1" focusable="false" xmlns="http://www.w3.org/2000/svg" xmlns:xlink="http://www.w3.org/1999/xlink"
	 x="0px" y="0px" width="24px" height="24px" viewBox="0 0 24 24" enable-background="new 0 0 24 24" xml:space="preserve">
<path d="M16.148,7.5C15.469,3.314,13.865,0.375,12,0.375c-1.866,0-3.469,2.939-4.148,7.125H16.148z M7.5,12
	c0,1.041,0.056,2.039,0.155,3h8.686c0.099-0.961,0.154-1.959,0.154-3c0-1.041-0.056-2.039-0.154-3H7.655
	C7.556,9.961,7.5,10.959,7.5,12z M22.721,7.5c-1.341-3.183-4.055-5.644-7.406-6.638c1.144,1.584,1.931,3.971,2.344,6.638H22.721z
	 M8.681,0.862C5.334,1.856,2.616,4.317,1.28,7.5h5.062C6.75,4.833,7.538,2.447,8.681,0.862z M23.222,9h-5.376
	C17.943,9.984,18,10.992,18,12s-0.057,2.016-0.154,3h5.371c0.258-0.961,0.403-1.959,0.403-3C23.62,10.959,23.475,9.961,23.222,9z
	 M6,12c0-1.008,0.056-2.016,0.155-3H0.778c-0.253,0.961-0.403,1.959-0.403,3c0,1.041,0.15,2.039,0.403,3H6.15
	C6.056,14.016,6,13.008,6,12z M7.852,16.5c0.68,4.186,2.283,7.125,4.148,7.125c1.865,0,3.469-2.939,4.148-7.125H7.852z
	 M15.318,23.138c3.348-0.994,6.066-3.455,7.406-6.638h-5.062C17.25,19.167,16.463,21.553,15.318,23.138z M1.28,16.5
	c1.34,3.183,4.055,5.644,7.406,6.638c-1.144-1.585-1.931-3.971-2.344-6.638H1.28z"/>
</svg>
